<?xml version="1.0" standalone="no"?>
<!DOCTYPE svg PUBLIC "-//W3C//DTD SVG 20010904//EN"
 "http://www.w3.org/TR/2001/REC-SVG-20010904/DTD/svg10.dtd">
<svg version="1.0" xmlns="http://www.w3.org/2000/svg"
 width="512.000000pt" height="512.000000pt" viewBox="0 0 512.000000 512.000000"
 preserveAspectRatio="xMidYMid meet">
<metadata>
Created by potrace 1.14, written by Peter Selinger 2001-2017
</metadata>
<g transform="translate(0.000000,512.000000) scale(0.100000,-0.100000)"
fill="#000000" stroke="none">
<path d="M0 2560 l0 -2560 2560 0 2560 0 0 2560 0 2560 -2560 0 -2560 0 0
-2560z m3474 1589 c5 -4 26 -642 23 -646 -1 -1 -41 -5 -89 -9 l-86 -7 -7 59
c-28 238 -85 317 -257 359 -69 17 -526 39 -590 28 l-38 -6 0 -597 0 -598 108
-8 c181 -12 441 -10 502 5 162 40 201 99 226 344 l6 58 71 -3 72 -3 -5 -195
c-3 -107 -4 -331 -2 -497 l3 -303 -70 0 c-76 0 -81 4 -81 68 0 57 -24 146 -53
194 -32 55 -98 93 -187 107 -89 14 -386 22 -498 15 l-93 -7 3 -586 3 -586 25
-50 c20 -40 35 -55 75 -75 49 -25 55 -25 280 -25 184 0 247 4 315 18 215 46
315 149 361 371 10 50 19 104 19 120 l0 29 86 -6 c48 -3 89 -8 91 -11 6 -6
-94 -726 -102 -734 -6 -7 -2146 -3 -2154 3 -1 2 0 26 4 54 l7 50 56 6 c205 21
284 69 325 200 l22 70 0 1205 0 1205 -22 70 c-41 131 -120 179 -324 200 -56 6
-57 6 -63 43 -3 20 -6 45 -6 54 0 16 50 17 766 17 422 0 770 3 773 7 6 7 498
0 505 -7z"/>
</g>
</svg>
